# xmcd CD database file
#
# Track frame offsets:
#	150
#	14212
#	34188
#	51697
#	68140
#	80905
#	94777
#	107986
#	121667
#	135505
#	146783
#	168022
#	182138
#	195256
#	209064
#	225383
#	239255
#	265149
#	278349
#	290376
#	304956
#	319374
#
# Disc length: 4438 seconds
#
# Revision: 0
# Processed by: cddbd v1.5.2PL0 Copyright (c) Steve Scherf et al.
# Submitted via: CDex 1.70beta2
#
DISCID=4a115416
DTITLE=Billie Holiday - My favorite Billie Holiday
DYEAR=1900
DGENRE=Jazz
TTITLE0=Billie Holiday - Crazy He Calls Me
TTITLE1=Billie Holiday - Come Rain Or Come Shine
TTITLE2=Billie Holiday - Nice Work If You Can Get It
TTITLE3=Billie Holiday - Cheek To Cheek
TTITLE4=Billie Holiday - The Very Thought of You
TTITLE5=Billie Holiday - All of me
TTITLE6=Billie Holiday - When You're Smiling
TTITLE7=Billie Holiday - What A Little Moonlight Can Do
TTITLE8=Billie Holiday - Miss Brown To You
TTITLE9=Billie Holiday - Please Keep Me In Your Arms
TTITLE10=Billie Holiday - Ain't Misbehavin'
TTITLE11=Billie Holiday - On The Sunny Side Of The Street
TTITLE12=Billie Holiday - Them There Eyes
TTITLE13=Billie Holiday - Strange fruit
TTITLE14=Billie Holiday - Blue Moon
TTITLE15=Billie Holiday - The Way You Look Tonight
TTITLE16=Billie Holiday - All or nothing at all
TTITLE17=Billie Holiday - Did I Remember
TTITLE18=Billie Holiday - Me, Myself And I
TTITLE19=Billie Holiday - Let's Call a Heart
TTITLE20=Billie Holiday - I'll Get By
TTITLE21=Billie Holiday - What A Night, What A Moon, What A Girl
EXTD=
EXTT0=
EXTT1=
EXTT2=
EXTT3=
EXTT4=
EXTT5=
EXTT6=
EXTT7=
EXTT8=
EXTT9=
EXTT10=
EXTT11=
EXTT12=
EXTT13=
EXTT14=
EXTT15=
EXTT16=
EXTT17=
EXTT18=
EXTT19=
EXTT20=
EXTT21=
PLAYORDER=
